<?xml version="1.0" encoding="UTF-8" standalone="no"?>
<!-- Created with Inkscape (http://www.inkscape.org/) -->

<svg
   width="200"
   height="200"
   viewBox="0 0 52.916668 52.916666"
   version="1.1"
   id="svg8"
   inkscape:version="1.2.1 (9c6d41e410, 2022-07-14)"
   sodipodi:docname="progress.svg"
   xml:space="preserve"
   xmlns:inkscape="http://www.inkscape.org/namespaces/inkscape"
   xmlns:sodipodi="http://sodipodi.sourceforge.net/DTD/sodipodi-0.dtd"
   xmlns="http://www.w3.org/2000/svg"
   xmlns:svg="http://www.w3.org/2000/svg"
   xmlns:rdf="http://www.w3.org/1999/02/22-rdf-syntax-ns#"
   xmlns:cc="http://creativecommons.org/ns#"
   xmlns:dc="http://purl.org/dc/elements/1.1/"><defs
     id="defs2"><inkscape:path-effect
       effect="envelope"
       id="path-effect4658"
       is_visible="true"
       yy="true"
       xx="true"
       bendpath1="m -199.08406,108.42369 h 7.0057"
       bendpath2="m -192.07836,108.42369 v 6.75242"
       bendpath3="m -199.08406,115.17611 h 7.0057"
       bendpath4="m -199.08406,108.42369 v 6.75242" /><inkscape:path-effect
       effect="bend_path"
       id="path-effect4656"
       is_visible="true"
       bendpath="m -192.00142,114.60623 c 2.12577,-0.53066 4.48261,0.85111 7.0057,0"
       prop_scale="1"
       scale_y_rel="false"
       vertical="false"
       bendpath-nodetypes="cc" /><inkscape:path-effect
       effect="bounding_box"
       id="path-effect4654"
       is_visible="true"
       linkedpath=""
       visualbounds="false" /><inkscape:perspective
       sodipodi:type="inkscape:persp3d"
       inkscape:vp_x="0 : 526.18109 : 1"
       inkscape:vp_y="0 : 1000 : 0"
       inkscape:vp_z="744.09448 : 526.18109 : 1"
       inkscape:persp3d-origin="372.04724 : 350.78739 : 1"
       id="perspective9" /></defs><sodipodi:namedview
     id="base"
     pagecolor="#ffffff"
     bordercolor="#666666"
     borderopacity="1.0"
     inkscape:pageopacity="0.0"
     inkscape:pageshadow="2"
     inkscape:zoom="1.4142136"
     inkscape:cx="4.9497475"
     inkscape:cy="142.12846"
     inkscape:document-units="px"
     inkscape:current-layer="g5375"
     showgrid="false"
     fit-margin-top="0"
     fit-margin-left="0"
     fit-margin-right="0"
     fit-margin-bottom="0"
     inkscape:window-width="1920"
     inkscape:window-height="991"
     inkscape:window-x="-9"
     inkscape:window-y="-9"
     inkscape:window-maximized="1"
     showguides="false"
     inkscape:object-nodes="true"
     units="px"
     inkscape:snap-page="true"
     inkscape:showpageshadow="2"
     inkscape:pagecheckerboard="0"
     inkscape:deskcolor="#d1d1d1" /><metadata
     id="metadata5"><rdf:RDF><cc:Work
         rdf:about=""><dc:format>image/svg+xml</dc:format><dc:type
           rdf:resource="http://purl.org/dc/dcmitype/StillImage" /></cc:Work></rdf:RDF></metadata><g
     inkscape:label="Layer 1"
     inkscape:groupmode="layer"
     id="layer1"
     transform="translate(98.048812,-95.14345)"><g
       style="stroke-width:0.5"
       id="g5375"
       transform="matrix(2,0,0,2,-98.048812,95.143449)"><rect
         ry="1.984375"
         rx="1.984375"
         style="display:inline;opacity:1;fill:#222222;fill-opacity:1;fill-rule:nonzero;stroke:none;stroke-width:0.25;stroke-linecap:butt;stroke-linejoin:round;stroke-miterlimit:4;stroke-dasharray:none;stroke-dashoffset:0;stroke-opacity:0.909449;paint-order:normal"
         id="rect5363"
         width="26.458334"
         height="26.458334"
         x="0"
         y="-1.110223e-16" /><rect
         ry="1.3229166"
         rx="1.3229166"
         y="1.322917"
         x="1.322917"
         height="23.8125"
         width="23.8125"
         id="rect5365"
         style="opacity:1;fill:#9c27b0;fill-opacity:1;fill-rule:nonzero;stroke:none;stroke-width:0.25;stroke-linecap:butt;stroke-linejoin:round;stroke-miterlimit:4;stroke-dasharray:none;stroke-dashoffset:0;stroke-opacity:0.90944878;paint-order:normal" /><path
         inkscape:connector-curvature="0"
         style="font-style:normal;font-variant:normal;font-weight:bold;font-stretch:normal;font-size:4.23333px;line-height:4.23333px;font-family:Montserrat;-inkscape-font-specification:'Montserrat Bold';text-align:center;text-anchor:middle;display:none;opacity:1;fill:#222222;fill-opacity:1;fill-rule:nonzero;stroke:none;stroke-width:0.25;stroke-linecap:butt;stroke-linejoin:round;stroke-miterlimit:4;stroke-dasharray:none;stroke-dashoffset:0;stroke-opacity:0.909449;paint-order:normal"
         d="m 10.804879,3.4467321 a 0.15871531,0.15871531 0 0 0 -0.136382,0.1146841 0.15871531,0.15871531 0 0 0 0,0.00252 C 10.140525,3.6384432 9.6416792,3.965285 9.1881282,4.6909495 8.7115532,5.4663873 8.3524323,6.579977 8.0772328,7.9666052 6.7809381,7.5183239 5.6533861,7.2662043 4.7408247,7.2822132 3.7816738,7.2991518 3.1147858,7.5444251 2.8147338,8.0695121 a 0.15871531,0.15871531 0 0 0 0,0.00253 C 2.7114104,8.2598824 2.6603742,8.4734102 2.6603742,8.7068424 c 0,0.4210159 0.1552856,0.8916088 0.4475822,1.4177576 0.4325522,0.800072 1.2077345,1.656709 2.2422503,2.565227 -1.0505355,0.923913 -1.835515,1.786695 -2.2682869,2.580106 a 0.15871531,0.15871531 0 0 0 0,0.002 c -0.2751035,0.525219 -0.4215456,0.985636 -0.4215456,1.389797 0,0.23355 0.051235,0.447071 0.1543596,0.634798 a 0.15871531,0.15871531 0 0 0 0,0.0025 c 0.291392,0.51696 0.943761,0.765711 1.8864159,0.799078 a 0.15871531,0.15871531 0 0 0 0.00252,0 c 0.9137959,0.02385 2.0535277,-0.233556 3.3717428,-0.696171 0.2741331,1.348491 0.6233467,2.453038 1.0867197,3.23598 a 0.15871531,0.15871531 0 0 0 0,0.002 c 0.500317,0.825527 1.0505898,1.281995 1.6589068,1.281995 0.601456,0 1.143394,-0.456502 1.635347,-1.281995 a 0.15871531,0.15871531 0 0 0 0,-0.002 c 0.463775,-0.783622 0.815602,-1.888301 1.089818,-3.238461 1.329834,0.457616 2.472598,0.71099 3.381042,0.686873 0.941434,-0.02479 1.593573,-0.269105 1.885797,-0.78482 v -0.0025 c 0.112868,-0.188987 0.168617,-0.409658 0.168617,-0.651537 0,-0.404148 -0.146131,-0.860011 -0.421545,-1.377461 a 0.15871531,0.15871531 0 0 0 0,-0.0025 c -0.442823,-0.797089 -1.23398,-1.657456 -2.293703,-2.579495 1.035751,-0.909437 1.822657,-1.768065 2.270146,-2.575146 h -0.0025 c 0.292427,-0.5180303 0.447581,-0.9804659 0.447581,-1.3941992 0,-0.2419357 -0.05577,-0.4625695 -0.168619,-0.6515355 C 18.512152,7.5425303 17.843709,7.2989275 16.877611,7.2822708 15.967425,7.2660519 14.83776,7.5183689 13.538724,7.964183 13.2636,6.5792764 12.907093,5.4657804 12.430927,4.6910059 11.93891,3.8904337 11.406296,3.446827 10.820996,3.446827 a 0.15871531,0.15871531 0 0 0 -0.01612,0 z m 0.01612,0.9373179 c 0.150341,0 0.307715,0.067598 0.482918,0.2318503 0.175202,0.1642516 0.359966,0.4245219 0.545528,0.7798595 0.346282,0.6549206 0.623917,1.637559 0.838751,2.8683679 C 12.063219,8.5044145 11.441451,8.7755104 10.823482,9.0818019 10.1896,8.7745053 9.5580522,8.5050791 8.9302472,8.2641277 9.1450812,7.0333188 9.4227172,6.0506804 9.7689982,5.3957598 9.9543492,5.040836 10.140769,4.7800283 10.319487,4.6159003 10.498204,4.4517709 10.66064,4.38405 10.821003,4.38405 Z M 4.7637673,8.1296051 c 0.0911,-0.00115 0.1872412,6.346e-4 0.2888825,0.00565 0.7474087,0.037804 1.7184191,0.2872155 2.8559695,0.7048491 C 7.8091824,9.5057349 7.7347419,10.1847 7.6885481,10.876545 7.1087668,11.268017 6.5593987,11.671897 6.038942,12.090331 5.1011119,11.31416 4.3963857,10.596689 3.988867,9.9627665 a 0.15871531,0.15871531 0 0 0 0,-0.00253 C 3.7681673,9.6213132 3.6336709,9.3292372 3.580961,9.0911211 3.5282498,8.8530027 3.5516668,8.6760009 3.6373786,8.5331928 a 0.15871531,0.15871531 0 0 0 0.00252,-0.00253 c 0.077723,-0.1367995 0.2165721,-0.2425416 0.4500609,-0.3136849 0.1751178,-0.053358 0.4005682,-0.083788 0.673853,-0.0874 z m 12.1033117,0 c 0.27339,0.00358 0.499447,0.033915 0.676332,0.0874 0.234475,0.070887 0.376969,0.1768772 0.458741,0.313679 0.08224,0.1423488 0.106741,0.319181 0.05208,0.5579284 -0.05467,0.2387484 -0.192044,0.5324907 -0.412866,0.8716061 a 0.15871531,0.15871531 0 0 0 0,0.00253 c -0.407388,0.6412594 -1.116485,1.3628534 -2.061855,2.1393474 -0.520806,-0.418729 -1.06877,-0.824565 -1.648986,-1.216282 -0.04645,-0.698312 -0.126237,-1.3800514 -0.23247,-2.0457355 1.137528,-0.4174882 2.114328,-0.6667861 2.877667,-0.7048491 h 0.002 c 0.10164,-0.00496 0.198374,-0.00669 0.289502,-0.00565 z m -4.035678,1.0433264 c 0.04584,0.3539495 0.08088,0.7148688 0.112198,1.0798995 -0.175573,-0.108229 -0.351341,-0.216193 -0.526931,-0.327937 a 0.15871531,0.15871531 0 0 0 -0.0069,-0.00427 C 12.214625,9.8121648 12.028243,9.7125709 11.840155,9.6112854 12.174114,9.458371 12.504862,9.3113246 12.831407,9.1730008 Z m -4.0418758,0.00935 c 0.326574,0.1336185 0.657179,0.2795376 0.991253,0.4314618 -0.186048,0.1011782 -0.370227,0.2010224 -0.559789,0.3093389 a 0.15871531,0.15871531 0 0 0 -0.0049,0.00196 c -0.182855,0.1129498 -0.361907,0.2210548 -0.541185,0.3304198 0.03138,-0.364238 0.06877,-0.7236537 0.114684,-1.0730809 z m 2.0060608,0.9373175 c 0.380181,0.198616 0.760401,0.400801 1.140652,0.613721 0.371731,0.21239 0.734257,0.434199 1.091678,0.660834 0.02131,0.42509 0.03285,0.856072 0.03285,1.295632 0,0.432446 -0.01154,0.86114 -0.03285,1.286333 -0.349844,0.226046 -0.713033,0.446287 -1.091678,0.658356 a 0.15871531,0.15871531 0 0 0 -0.0025,0.0025 c -0.371354,0.219764 -0.744002,0.424638 -1.115216,0.623009 -0.383491,-0.197657 -0.757492,-0.404235 -1.1195748,-0.62302 a 0.15871531,0.15871531 0 0 0 -0.0074,-0.0025 c -0.386186,-0.212008 -0.751044,-0.432481 -1.1010585,-0.658357 -0.014251,-0.425344 -0.021077,-0.853753 -0.021077,-1.286334 0,-0.43968 0.00695,-0.870323 0.021076,-1.295631 0.3576325,-0.22649 0.7242425,-0.448455 1.1034555,-0.660834 a 0.15871531,0.15871531 0 0 0 0.0025,0 c 0.3630898,-0.211751 0.7289838,-0.416062 1.0991248,-0.613701 z m 0.02542,1.485328 c -0.188874,0 -0.3708,0.04999 -0.538711,0.143202 -0.171397,0.08681 -0.3084208,0.221062 -0.4029468,0.391169 -0.09393,0.16904 -0.143202,0.354836 -0.143202,0.550488 0,0.188829 0.04989,0.373214 0.143202,0.541191 a 0.15871531,0.15871531 0 0 0 0.0025,0.0025 c 0.09539,0.162205 0.2318638,0.293164 0.4004678,0.38683 0.167961,0.09331 0.349881,0.142581 0.538712,0.142581 0.182147,0 0.360733,-0.04998 0.52755,-0.142581 0.168607,-0.09366 0.305067,-0.224631 0.400468,-0.38683 a 0.15871531,0.15871531 0 0 0 0.0025,-0.0025 c 0.0933,-0.167972 0.142582,-0.352359 0.142582,-0.541191 0,-0.195699 -0.04866,-0.381459 -0.142582,-0.550488 -0.09453,-0.170196 -0.231581,-0.304361 -0.402947,-0.391169 -0.166866,-0.09271 -0.345443,-0.143202 -0.527551,-0.143202 z m -3.1839118,0.440762 c -0.00372,0.214088 -0.00744,0.42643 -0.00744,0.644097 0,0.211732 0.00372,0.42303 0.00744,0.634798 -0.3033437,-0.208533 -0.599767,-0.419111 -0.8809054,-0.634798 0.2813243,-0.220605 0.5773205,-0.434325 0.8809054,-0.644097 z m 6.3467368,0 c 0.305228,0.210184 0.604168,0.422996 0.890825,0.644097 -0.286462,0.216167 -0.585836,0.425848 -0.890825,0.634798 0.0071,-0.211604 0.01673,-0.42321 0.01673,-0.634798 0,-0.217475 -0.0095,-0.430149 -0.01673,-0.644097 z M 6.0296423,13.2781 c 0.5275631,0.418627 1.0784643,0.823966 1.6589043,1.215663 0.046328,0.690981 0.1207678,1.369074 0.2200723,2.033955 -1.160654,0.425172 -2.144836,0.675309 -2.8913055,0.705469 C 4.61878,17.248937 4.3031245,17.217547 4.0731758,17.146397 3.8432258,17.075227 3.7056835,16.970535 3.6280732,16.837059 3.5506142,16.70381 3.5280247,16.531303 3.5809642,16.295868 3.6338912,16.060432 3.7639564,15.76801 3.9770937,15.4286 a 0.15871531,0.15871531 0 0 0 0.00252,-0.002 c 0.3832817,-0.631258 1.0899612,-1.357034 2.0500742,-2.148612 z m 9.5591617,0 c 0.96081,0.791844 1.672955,1.518278 2.064332,2.150501 a 0.15871531,0.15871531 0 0 0 0,0.0025 c 0.216985,0.339287 0.350189,0.630109 0.402948,0.864788 0.05275,0.234678 0.02916,0.40539 -0.05146,0.53871 a 0.15871531,0.15871531 0 0 0 0,0.0025 c -0.07762,0.13351 -0.217644,0.238174 -0.447582,0.309341 -0.229941,0.07116 -0.545612,0.102586 -0.944138,0.08679 -0.746585,-0.0301 -1.734583,-0.280105 -2.903084,-0.70547 0.09934,-0.664867 0.1745,-1.342932 0.220691,-2.033956 0.580438,-0.391713 1.13072,-0.797047 1.658285,-1.215663 z m -6.9139598,1.83434 c 0.179297,0.11221 0.356256,0.226872 0.546149,0.335376 0.183963,0.108171 0.37225,0.208311 0.559787,0.30934 -0.334633,0.153247 -0.66654,0.299067 -0.993731,0.437665 -0.04593,-0.354709 -0.08083,-0.716546 -0.112201,-1.082381 z m 4.2687668,0.0025 c -0.03133,0.365031 -0.06636,0.72595 -0.11221,1.079899 -0.326544,-0.138319 -0.657293,-0.284745 -0.991251,-0.437662 0.188098,-0.101294 0.374478,-0.200883 0.569706,-0.30934 a 0.15871531,0.15871531 0 0 0 0.002,-0.0025 c 0.182513,-0.107351 0.356337,-0.219479 0.531892,-0.330417 z m -2.148023,1.171648 c 0.628416,0.308237 1.259678,0.581275 1.895095,0.829452 -0.207335,1.202298 -0.481959,2.171875 -0.829453,2.844192 a 0.15871531,0.15871531 0 0 0 0,0.0025 c -0.181416,0.358889 -0.367022,0.621577 -0.543669,0.787298 -0.176647,0.165722 -0.336712,0.23433 -0.496555,0.23433 -0.164814,0 -0.330249,-0.07084 -0.510814,-0.23681 -0.180567,-0.165946 -0.3676438,-0.428443 -0.5529688,-0.78727 -0.347492,-0.672316 -0.622117,-1.641893 -0.829453,-2.84419 0.625889,-0.247397 1.2488838,-0.522441 1.8678178,-0.829454 z"
         id="text5407" /><path
         inkscape:connector-curvature="0"
         id="path5369"
         d="m 0.72760492,18.520836 v 4.167188 c 0,1.539081 1.23904398,2.778124 2.77812498,2.778124 H 22.952604 c 1.539081,0 2.778125,-1.239043 2.778125,-2.778124 v -4.167188 z"
         style="opacity:1;fill:#222222;fill-opacity:1;fill-rule:nonzero;stroke:none;stroke-width:0.24999997;stroke-linecap:butt;stroke-linejoin:round;stroke-miterlimit:4;stroke-dasharray:none;stroke-dashoffset:0;stroke-opacity:0.90944878;paint-order:normal" /><g
         id="text5373"
         style="font-style:normal;font-variant:normal;font-weight:500;font-stretch:normal;font-size:4.23333px;line-height:4.23333px;font-family:Montserrat;-inkscape-font-specification:'Montserrat Medium';text-align:center;letter-spacing:-0.264583px;text-anchor:middle;display:none;opacity:1;fill:#eeeeee;fill-opacity:1;fill-rule:nonzero;stroke:none;stroke-width:0.25;stroke-linecap:butt;stroke-linejoin:round;stroke-miterlimit:4;stroke-dasharray:none;stroke-dashoffset:0;stroke-opacity:0.909449;paint-order:normal"
         aria-label="PROGRESS"><path
           id="path4608"
           style="font-style:normal;font-variant:normal;font-weight:500;font-stretch:normal;font-size:4.23333px;font-family:Montserrat;-inkscape-font-specification:'Montserrat Medium';letter-spacing:-0.264583px;fill:#eeeeee;fill-opacity:1;stroke-width:0.25"
           d="m 3.760524,20.325294 q 0.5587999,0 0.8635999,0.2667 0.3090333,0.2667 0.3090333,0.753534 0,0.508 -0.3090333,0.791633 -0.3048,0.2794 -0.8635999,0.2794 h -0.6477 v 0.872067 H 2.5455574 v -2.963334 z m -0.029633,1.591734 q 0.3217333,0 0.4910667,-0.1397 0.1735666,-0.1397 0.1735666,-0.414867 0,-0.270933 -0.1735666,-0.4064 Q 4.0526239,20.820594 3.7308906,20.820594 H 3.112824 v 1.096434 z"
           inkscape:connector-curvature="0" /><path
           id="path4610"
           style="font-style:normal;font-variant:normal;font-weight:500;font-stretch:normal;font-size:4.23333px;font-family:Montserrat;-inkscape-font-specification:'Montserrat Medium';letter-spacing:-0.264583px;fill:#eeeeee;fill-opacity:1;stroke-width:0.25"
           d="m 6.9959811,23.288628 -0.5122333,-0.8763 q -0.033867,0.0042 -0.1058333,0.0042 H 5.7090478 v 0.872067 H 5.1417812 v -2.963334 h 1.2361333 q 0.5757333,0 0.8889999,0.2667 0.3132667,0.2667 0.3132667,0.753534 0,0.347133 -0.1524,0.592666 -0.1481667,0.245534 -0.4360333,0.3683 l 0.6519333,0.982134 z m -1.2869333,-1.3716 h 0.6688667 q 0.3217333,0 0.4910666,-0.1397 0.1693333,-0.1397 0.1693333,-0.414867 0,-0.270933 -0.1693333,-0.4064 Q 6.6996478,20.820594 6.3779145,20.820594 H 5.7090478 Z"
           inkscape:connector-curvature="0" /><path
           id="path4612"
           style="font-style:normal;font-variant:normal;font-weight:500;font-stretch:normal;font-size:4.23333px;font-family:Montserrat;-inkscape-font-specification:'Montserrat Medium';letter-spacing:-0.264583px;fill:#eeeeee;fill-opacity:1;stroke-width:0.25"
           d="m 9.2826426,20.287194 q 0.4402667,0 0.8001004,0.198967 0.364066,0.198967 0.5715,0.5461 0.207433,0.347133 0.207433,0.770467 0,0.423333 -0.207433,0.7747 -0.207434,0.347133 -0.5715,0.550333 -0.3598337,0.2032 -0.8001004,0.2032 -0.4402666,0 -0.8043333,-0.2032 -0.3598333,-0.2032 -0.5672666,-0.550333 -0.2074333,-0.351367 -0.2074333,-0.7747 0,-0.423334 0.2074333,-0.770467 0.2074333,-0.347133 0.5672666,-0.5461 0.3640667,-0.198967 0.8043333,-0.198967 z m 0.00847,0.508 q -0.2709333,0 -0.5037666,0.135467 -0.2328334,0.131233 -0.3683,0.364067 -0.1354667,0.2286 -0.1354667,0.508 0,0.2794 0.1354667,0.512233 0.1397,0.232833 0.3683,0.3683 0.2328333,0.135467 0.5037666,0.135467 0.2667,0 0.4953,-0.135467 0.2285994,-0.135467 0.3598334,-0.3683 0.135466,-0.232833 0.135466,-0.512233 0,-0.2794 -0.135466,-0.508 -0.131234,-0.232834 -0.3598334,-0.364067 -0.2286,-0.135467 -0.4953,-0.135467 z"
           inkscape:connector-curvature="0" /><path
           id="path4614"
           style="font-style:normal;font-variant:normal;font-weight:500;font-stretch:normal;font-size:4.23333px;font-family:Montserrat;-inkscape-font-specification:'Montserrat Medium';letter-spacing:-0.264583px;fill:#eeeeee;fill-opacity:1;stroke-width:0.25"
           d="m 13.00652,21.815428 h 0.4953 v 1.126066 q -0.232833,0.173567 -0.550333,0.283634 -0.3175,0.105833 -0.6223,0.105833 -0.436034,0 -0.795867,-0.2032 -0.3556,-0.2032 -0.563033,-0.550333 -0.207433,-0.351367 -0.207433,-0.7747 0,-0.423334 0.211666,-0.766234 0.211667,-0.347133 0.575734,-0.5461 0.368299,-0.2032 0.812799,-0.2032 0.3175,0 0.626534,0.1143 0.309033,0.1143 0.5334,0.313267 l -0.321734,0.4191 q -0.169333,-0.160867 -0.3937,-0.249767 -0.220133,-0.0889 -0.4445,-0.0889 -0.2794,0 -0.516466,0.135467 -0.232834,0.131233 -0.3683,0.364067 -0.135467,0.232833 -0.135467,0.508 0,0.2794 0.135467,0.512233 0.1397,0.232833 0.372533,0.3683 0.232833,0.135467 0.516467,0.135467 0.1524,0 0.3175,-0.04657 0.169333,-0.0508 0.321733,-0.1397 z"
           inkscape:connector-curvature="0" /><path
           id="path4616"
           style="font-style:normal;font-variant:normal;font-weight:500;font-stretch:normal;font-size:4.23333px;font-family:Montserrat;-inkscape-font-specification:'Montserrat Medium';letter-spacing:-0.264583px;fill:#eeeeee;fill-opacity:1;stroke-width:0.25"
           d="m 15.743768,23.288628 -0.512234,-0.8763 q -0.03387,0.0042 -0.105833,0.0042 h -0.668867 v 0.872067 h -0.567266 v -2.963334 h 1.236133 q 0.575733,0 0.889,0.2667 0.313267,0.2667 0.313267,0.753534 0,0.347133 -0.1524,0.592666 -0.148167,0.245534 -0.436034,0.3683 l 0.651934,0.982134 z m -1.286934,-1.3716 h 0.668867 q 0.321733,0 0.491067,-0.1397 0.169333,-0.1397 0.169333,-0.414867 0,-0.270933 -0.169333,-0.4064 -0.169334,-0.135467 -0.491067,-0.135467 h -0.668867 z"
           inkscape:connector-curvature="0" /><path
           id="path4618"
           style="font-style:normal;font-variant:normal;font-weight:500;font-stretch:normal;font-size:4.23333px;font-family:Montserrat;-inkscape-font-specification:'Montserrat Medium';letter-spacing:-0.264583px;fill:#eeeeee;fill-opacity:1;stroke-width:0.25"
           d="m 16.684228,20.325294 h 2.1717 v 0.4953 h -1.604433 v 0.732367 h 1.439333 v 0.4953 h -1.439333 v 0.745067 h 1.655233 v 0.4953 h -2.2225 z"
           inkscape:connector-curvature="0" /><path
           id="path4620"
           style="font-style:normal;font-variant:normal;font-weight:500;font-stretch:normal;font-size:4.23333px;font-family:Montserrat;-inkscape-font-specification:'Montserrat Medium';letter-spacing:-0.264583px;fill:#eeeeee;fill-opacity:1;stroke-width:0.25"
           d="m 21.076973,21.087294 q -0.2286,-0.1397 -0.4699,-0.2159 -0.237067,-0.0762 -0.4191,-0.0762 -0.2032,0 -0.321733,0.0762 -0.118534,0.0762 -0.118534,0.211667 0,0.122767 0.08043,0.207433 0.08467,0.08043 0.207433,0.135467 0.127,0.0508 0.3429,0.1143 0.300566,0.0889 0.491066,0.1778 0.194734,0.0889 0.3302,0.262467 0.135467,0.173566 0.135467,0.4572 0,0.270933 -0.148167,0.474133 -0.143933,0.198967 -0.402166,0.3048 -0.254,0.105833 -0.5842,0.105833 -0.347133,0 -0.677333,-0.127 -0.3302,-0.131233 -0.575734,-0.347133 l 0.237067,-0.4826 q 0.224367,0.207433 0.503767,0.325967 0.2794,0.118533 0.520699,0.118533 0.237067,0 0.372534,-0.0889 0.135466,-0.09313 0.135466,-0.249767 0,-0.127 -0.08467,-0.207433 -0.08043,-0.08467 -0.207434,-0.135467 -0.127,-0.0508 -0.347133,-0.1143 -0.300566,-0.0889 -0.491066,-0.173566 -0.1905,-0.08467 -0.325967,-0.254 -0.135467,-0.173567 -0.135467,-0.452967 0,-0.258233 0.135467,-0.448733 0.1397,-0.194734 0.389467,-0.300567 0.254,-0.105833 0.584199,-0.105833 0.287867,0 0.567267,0.08467 0.283633,0.08467 0.503767,0.2286 z"
           inkscape:connector-curvature="0" /><path
           id="path4622"
           style="font-style:normal;font-variant:normal;font-weight:500;font-stretch:normal;font-size:4.23333px;font-family:Montserrat;-inkscape-font-specification:'Montserrat Medium';letter-spacing:-0.264583px;fill:#eeeeee;fill-opacity:1;stroke-width:0.25"
           d="m 23.47476,21.087294 q -0.2286,-0.1397 -0.4699,-0.2159 -0.237067,-0.0762 -0.4191,-0.0762 -0.2032,0 -0.321733,0.0762 -0.118534,0.0762 -0.118534,0.211667 0,0.122767 0.08043,0.207433 0.08467,0.08043 0.207433,0.135467 0.127,0.0508 0.3429,0.1143 0.300567,0.0889 0.491067,0.1778 0.194733,0.0889 0.3302,0.262467 0.135466,0.173566 0.135466,0.4572 0,0.270933 -0.148166,0.474133 -0.143934,0.198967 -0.402167,0.3048 -0.254,0.105833 -0.5842,0.105833 -0.347133,0 -0.677333,-0.127 -0.3302,-0.131233 -0.575734,-0.347133 l 0.237067,-0.4826 q 0.224367,0.207433 0.503767,0.325967 0.2794,0.118533 0.5207,0.118533 0.237066,0 0.372533,-0.0889 0.135467,-0.09313 0.135467,-0.249767 0,-0.127 -0.08467,-0.207433 -0.08043,-0.08467 -0.207433,-0.135467 -0.127,-0.0508 -0.347134,-0.1143 -0.300566,-0.0889 -0.491066,-0.173566 -0.1905,-0.08467 -0.325967,-0.254 -0.135467,-0.173567 -0.135467,-0.452967 0,-0.258233 0.135467,-0.448733 0.1397,-0.194734 0.389467,-0.300567 0.254,-0.105833 0.5842,-0.105833 0.287866,0 0.567266,0.08467 0.283634,0.08467 0.503767,0.2286 z"
           inkscape:connector-curvature="0" /></g><path
         style="display:inline;fill:#222222;fill-opacity:1;stroke-width:0.0219371"
         d="m 8.0565127,17.621418 c 0,-0.494683 -0.00576,-0.899423 -0.012795,-0.899423 -0.00704,0 -0.2785094,0.08936 -0.603271,0.198583 C 5.4940284,17.575175 3.8103002,17.831873 2.8282903,17.623739 2.239187,17.498881 2.0662024,17.318144 2.0701998,16.831681 2.0761234,16.110507 2.625145,15.220365 3.7773334,14.063854 4.4580355,13.380598 4.9291763,12.977484 5.8252658,12.311612 L 6.4239097,11.866769 5.8117648,11.353804 5.1996203,10.84084 5.0308884,10.891393 C 4.5625014,11.031725 4.118116,10.622513 4.2439588,10.166748 4.2850597,10.017893 4.2828197,10.01476 3.797096,9.54154 2.940974,8.707458 2.6211202,8.216478 2.5820951,7.676495 2.5435788,7.1435533 2.8071817,6.8136245 3.4277782,6.6180269 c 0.2657103,-0.083746 0.4017703,-0.09638 1.0091078,-0.093705 1.0352444,0.00456 1.859242,0.1724988 3.4278698,0.698628 l 0.927037,0.3109351 0.11684,-0.6160134 c 0.361116,-1.9039185 0.824077,-3.2658717 1.3868982,-4.0800203 0.270071,-0.3906723 0.481597,-0.5912063 0.7977,-0.7562479 0.30614,-0.1598407 0.780879,-0.1714281 1.096993,-0.026774 0.939217,0.4297819 1.680033,2.0914065 2.205278,4.9463567 0.06188,0.3363689 0.118618,0.6176789 0.126074,0.6251359 0.0075,0.0075 0.248866,-0.07279 0.536465,-0.17833 1.085355,-0.3982841 2.201013,-0.6999929 3.107345,-0.8403241 0.667433,-0.1033408 1.570159,-0.074261 1.920233,0.061857 0.447875,0.174146 0.693773,0.5697821 0.628522,1.0112531 -0.154209,1.043317 -1.410452,2.562995 -3.285062,3.973939 -0.183958,0.138458 -0.33414,0.264157 -0.333739,0.279331 3.98e-4,0.01517 0.183027,0.1558 0.405837,0.312501 1.280779,0.90077 2.552287,2.092839 3.07791,2.885612 0.625566,0.943514 0.758931,1.73982 0.366283,2.187022 -0.320764,0.365331 -1.491212,0.411985 -3.175891,0.126593 -0.639846,-0.108393 -1.839311,-0.397945 -2.28808,-0.552344 -0.133784,-0.04603 -0.259897,-0.08369 -0.28025,-0.08369 -0.02035,0 -0.037,0.384996 -0.037,0.855548 v 0.855546 h -0.658113 -0.658114 l -0.0014,-1.107825 -0.0014,-1.107825 -0.514111,-0.214967 C 13.048191,15.97199 12.523586,15.73031 12.165163,15.553156 l -0.65168,-0.322098 -0.5768,0.270466 c -0.31724,0.148757 -0.793977,0.364537 -1.0594172,0.47951 l -0.482617,0.209045 -0.01168,1.16538 -0.01169,1.165381 H 8.7139098 8.0565127 Z M 5.051126,16.943281 c 0.28957,-0.04742 0.7634117,-0.147458 1.0529818,-0.222324 0.5338514,-0.138023 1.8910268,-0.581094 1.9449312,-0.634952 0.016178,-0.01616 0.034289,-0.200506 0.04025,-0.409654 0.00596,-0.209148 0.032654,-0.853644 0.059315,-1.432214 L 8.197081,13.192194 8.0954263,13.125344 C 8.0395161,13.088577 7.7491506,12.876191 7.450169,12.653376 L 6.9065669,12.248258 6.3026588,12.636371 c -2.433753,1.5641 -3.9070164,3.003169 -3.9194672,3.828496 -0.00345,0.228681 0.071367,0.348335 0.2877769,0.460245 0.3127825,0.161747 1.4502295,0.170428 2.3801575,0.01817 z m 14.89427,0.08295 c 0.371608,-0.06029 0.560365,-0.180367 0.668769,-0.425433 0.339113,-0.766621 -0.869766,-2.106724 -3.438725,-3.812001 l -0.68697,-0.45601 -0.409887,0.276531 c -0.225438,0.152091 -0.545,0.36127 -0.710139,0.464842 l -0.300253,0.188312 0.03151,1.104555 c 0.01733,0.607506 0.04385,1.231564 0.05895,1.386796 l 0.02743,0.282239 0.504554,0.171595 c 1.183053,0.402348 2.541411,0.733151 3.356381,0.817386 0.505875,0.05229 0.582798,0.05239 0.89838,0.0012 z m -9.585484,-1.925234 0.482617,-0.226726 -0.125726,-0.07428 c -0.06915,-0.04085 -0.375173,-0.22489 -0.680052,-0.408974 l -0.5543252,-0.334699 -0.02778,0.268887 c -0.01528,0.147889 -0.03008,0.480043 -0.03291,0.738121 l -0.0051,0.469234 0.230339,-0.10242 c 0.126687,-0.05633 0.4475182,-0.204448 0.7129572,-0.329148 z m 3.48089,-0.305892 c -0.0082,-0.384128 -0.02831,-0.711864 -0.04479,-0.728301 -0.01648,-0.01644 -0.28302,0.108401 -0.592303,0.277418 -0.309283,0.169019 -0.640008,0.346038 -0.734944,0.393376 l -0.172611,0.08607 0.106799,0.05804 c 0.212587,0.11552 1.33673,0.6069 1.393977,0.609328 0.04725,0.002 0.05581,-0.133687 0.04387,-0.695926 z M 12.105824,14.21664 c 0.898487,-0.489328 1.651846,-0.921172 1.676452,-0.960986 0.01337,-0.02162 0.0024,-0.588159 -0.02431,-1.258966 l -0.04861,-1.219651 -0.109391,-0.08775 c -0.144429,-0.115855 -1.809665,-0.98717 -1.886654,-0.98717 -0.03291,0 -0.51248,0.226483 -1.065706,0.503297 l -1.0058662,0.503298 -0.02405,0.187722 c -0.02356,0.18389 -0.103289,1.620331 -0.121229,2.184001 l -0.0091,0.285182 0.37045,0.213808 c 0.4597262,0.265333 1.6743222,0.903355 1.7214952,0.904293 0.01915,3.65e-4 0.25607,-0.119804 0.526491,-0.267079 z M 8.2758568,12.027791 c 0.02432,-0.297628 0.03542,-0.549935 0.02467,-0.560682 -0.01912,-0.01912 -0.7129645,0.365085 -0.8737793,0.483832 -0.0748,0.05523 -0.046688,0.08342 0.3499542,0.350851 0.2372086,0.159937 0.4366093,0.285473 0.4431132,0.278969 0.0065,-0.0065 0.031722,-0.25534 0.056038,-0.55297 z m 7.2125912,0.198918 c 0.212443,-0.137049 0.379393,-0.255854 0.371003,-0.264012 -0.0084,-0.0082 -0.220591,-0.13593 -0.471556,-0.283937 l -0.4563,-0.269104 0.02852,0.337455 c 0.01569,0.185601 0.02852,0.435307 0.02852,0.554902 0,0.257538 -0.02106,0.260711 0.499802,-0.0753 z M 7.4140659,11.222356 c 0.3171492,-0.201494 0.666151,-0.418047 0.775559,-0.481231 l 0.1989239,-0.11488 0.123001,-1.0434 c 0.06765,-0.573869 0.132942,-1.104527 0.145091,-1.17924 L 8.6787308,8.267766 8.0714707,8.036885 C 6.3823721,7.394691 5.2161758,7.1101752 4.2567674,7.106216 3.6778036,7.1038281 3.3606941,7.1922299 3.1335902,7.419334 2.9870798,7.565844 2.9670983,7.611111 2.9670983,7.796507 c 0,0.341853 0.1323531,0.539927 0.8517592,1.27471 l 0.6659351,0.680168 0.2224048,-0.0295 c 0.4273784,-0.05669 0.7160412,0.191451 0.7170547,0.616408 5.306e-4,0.215967 0.00475,0.222775 0.2731263,0.438742 0.4740971,0.381519 1.0565684,0.811675 1.0990833,0.811675 0.022532,0 0.3004542,-0.164859 0.6176042,-0.366352 z m 9.7186251,-0.09964 c 1.319724,-0.93141 1.844715,-1.392225 2.341091,-2.054908 0.766453,-1.02325 0.845236,-1.664769 0.230332,-1.8755785 -0.722251,-0.247611 -2.210911,0.077447 -4.682562,1.0224685 -0.250818,0.0959 -0.38395,0.170023 -0.384045,0.213826 -8e-5,0.03687 0.05039,0.521143 0.112146,1.076152 0.08951,0.804348 0.127371,1.020999 0.18661,1.067708 0.124021,0.09779 1.519418,0.963719 1.560251,0.968235 0.02094,0.0023 0.307224,-0.18574 0.636177,-0.417903 z M 10.2941,9.572472 10.886403,9.269233 10.370298,9.024992 C 10.086439,8.89066 9.8370298,8.780751 9.8160548,8.780751 c -0.02098,0 -0.05082,0.153012 -0.06633,0.340026 -0.01551,0.187014 -0.03942,0.433806 -0.05315,0.548428 -0.01373,0.114621 -0.01816,0.207976 -0.0099,0.207454 0.0083,-5.31e-4 0.281622,-0.137406 0.6073892,-0.304187 z m 3.313994,-0.232324 c -0.01745,-0.271472 -0.03736,-0.499435 -0.04424,-0.506586 -0.0069,-0.0072 -0.232722,0.09157 -0.501884,0.219371 l -0.489385,0.232372 0.495073,0.269442 c 0.27229,0.148194 0.51242,0.27159 0.533623,0.274214 0.02179,0.0027 0.02476,-0.209765 0.0068,-0.488813 z M 12.97043,8.2888 C 13.247935,8.167743 13.481518,8.062783 13.489504,8.055555 13.518674,8.029155 13.312361,6.3687208 13.187712,5.6267189 12.83994,3.5565213 12.375561,2.4645416 11.793445,2.3481182 11.114753,2.2123797 10.54573,3.4307167 10.141524,5.8850531 9.9831838,6.8464935 9.8493198,7.959746 9.8882278,7.991539 c 0.01812,0.0148 0.2030382,0.101086 0.4109352,0.191735 0.207896,0.09065 0.612637,0.278565 0.899422,0.417589 l 0.521429,0.25277 0.372931,-0.172365 C 12.298057,8.586468 12.692926,8.409856 12.97043,8.2888 Z"
         id="path2384" /><g
         aria-label="ATHEISM"
         id="text651"
         style="font-size:3.70417px;line-height:1.25;font-family:'Noto Sans JP';-inkscape-font-specification:'Noto Sans JP, @wght=500';font-variant-ligatures:none;font-variation-settings:'wght' 500;text-align:center;letter-spacing:0px;text-anchor:middle;display:inline;fill:#eeeeee;stroke-width:0.0661458"><path
           d="m 5.4125279,23.666718 0.9038175,-2.729974 h 0.4963587 l 0.9038175,2.729974 H 7.2609087 L 6.8201125,22.18505 Q 6.7534374,21.962799 6.6904665,21.736845 6.6274956,21.507186 6.5645247,21.277528 h -0.014817 q -0.059267,0.233363 -0.1259418,0.459317 -0.062971,0.225954 -0.129646,0.448205 l -0.4407962,1.481668 z m 0.5111754,-0.774172 v -0.340784 h 1.2742345 v 0.340784 z"
           id="path1504" /><path
           d="M 8.3635667,23.666718 V 21.299753 H 7.5671702 v -0.363009 h 2.0335893 v 0.363009 H 8.8006588 v 2.366965 z"
           id="path1506" /><path
           d="m 10.074894,23.666718 v -2.729974 h 0.429684 v 1.114955 h 1.166813 v -1.114955 h 0.429684 v 2.729974 h -0.429684 v -1.240897 h -1.166813 v 1.240897 z"
           id="path1508" /><path
           d="m 12.819681,23.666718 v -2.729974 h 1.611314 v 0.363009 h -1.181631 v 0.759355 h 1.000126 v 0.363008 h -1.000126 v 0.877889 h 1.222376 v 0.366713 z"
           id="path1510" /><path
           d="m 15.042184,23.666718 v -2.729974 h 0.429683 v 2.729974 z"
           id="path1512" /><path
           d="m 16.964648,23.718576 q -0.281517,0 -0.533401,-0.107421 -0.248179,-0.107421 -0.437092,-0.296334 l 0.251884,-0.296333 q 0.148167,0.144462 0.337079,0.233362 0.192617,0.0889 0.392642,0.0889 0.244476,0 0.374122,-0.107421 0.13335,-0.107421 0.13335,-0.277813 0,-0.125942 -0.05556,-0.200025 -0.05556,-0.07779 -0.155575,-0.129646 -0.09631,-0.05186 -0.22225,-0.107421 l -0.377825,-0.162984 q -0.133351,-0.05556 -0.262997,-0.144462 -0.125941,-0.0926 -0.211137,-0.229659 -0.08149,-0.140758 -0.08149,-0.340783 0,-0.214842 0.114829,-0.385234 0.11483,-0.170392 0.318559,-0.2667 0.203729,-0.100013 0.463021,-0.100013 0.240771,0 0.455613,0.0926 0.214842,0.09261 0.366713,0.251884 l -0.218546,0.274108 q -0.129646,-0.114829 -0.277813,-0.1778 -0.144463,-0.06668 -0.325967,-0.06668 -0.211138,0 -0.333375,0.09631 -0.122238,0.0926 -0.122238,0.251883 0,0.118534 0.06297,0.196321 0.06297,0.07408 0.162984,0.125942 0.103716,0.04815 0.211137,0.0926 l 0.374121,0.15928 q 0.162984,0.06668 0.288926,0.162983 0.125942,0.09631 0.196321,0.233363 0.07038,0.137054 0.07038,0.340783 0,0.218546 -0.114829,0.400051 -0.11483,0.1778 -0.329671,0.288925 -0.214842,0.107421 -0.51488,0.107421 z"
           id="path1514" /><path
           d="m 18.438908,23.666718 v -2.729974 h 0.496358 l 0.496359,1.381656 q 0.04815,0.13335 0.0926,0.274108 0.04445,0.137055 0.0889,0.274109 h 0.01852 q 0.04815,-0.137054 0.0889,-0.274109 0.04445,-0.140758 0.0889,-0.274108 l 0.488951,-1.381656 h 0.500063 v 2.729974 H 20.398413 V 22.3184 q 0,-0.122238 0.0074,-0.270405 0.01111,-0.148167 0.02222,-0.300038 0.01482,-0.15187 0.02963,-0.274108 h -0.01852 l -0.218546,0.629709 -0.474133,1.300163 h -0.266701 l -0.477838,-1.300163 -0.218546,-0.629709 h -0.01482 q 0.01482,0.122238 0.02593,0.274108 0.01482,0.151871 0.02222,0.300038 0.01111,0.148167 0.01111,0.270405 v 1.348318 z"
           id="path1516" /></g></g><text
       xml:space="preserve"
       style="font-style:normal;font-variant:normal;font-weight:500;font-stretch:normal;font-size:8.46667px;line-height:4.23333px;font-family:Montserrat;-inkscape-font-specification:'Montserrat Medium';text-align:center;text-anchor:middle;opacity:1;fill:#eeeeee;fill-opacity:1;fill-rule:nonzero;stroke:none;stroke-width:4.23333;stroke-linecap:butt;stroke-linejoin:round;stroke-miterlimit:4;stroke-dasharray:none;stroke-dashoffset:0;stroke-opacity:1;paint-order:stroke fill markers"
       x="-355.53735"
       y="24.113144"
       id="text4627-36-3"><tspan
         sodipodi:role="line"
         id="tspan4625-0-6"
         x="-355.53735"
         y="24.113144"
         style="font-style:normal;font-variant:normal;font-weight:500;font-stretch:normal;font-size:8.46667px;font-family:Montserrat;-inkscape-font-specification:'Montserrat Medium';text-align:center;text-anchor:middle;fill:#eeeeee;fill-opacity:1;stroke-width:4.23333">ORD</tspan></text></g></svg>
